<svg width="25" height="25" viewBox="0 0 25 25" fill="none" xmlns="http://www.w3.org/2000/svg">
    <g clip-path="url(#clip0_724_1793)">
        <path
            d="M24.7502 6.71318L23.4978 5.46085C23.3309 5.29362 23.1387 5.21027 22.9213 5.21027C22.7045 5.21027 22.5124 5.29362 22.3455 5.46085L12.5001 15.3057L2.65522 5.46112C2.48825 5.29388 2.2961 5.21053 2.07903 5.21053C1.86187 5.21053 1.66971 5.29388 1.50283 5.46112L0.250589 6.71354C0.0833541 6.88042 0 7.07257 0 7.28973C0 7.50672 0.0836173 7.69887 0.250589 7.86575L11.9239 19.5394C12.0908 19.7063 12.2831 19.7898 12.5001 19.7898C12.7172 19.7898 12.9091 19.7063 13.0759 19.5394L24.7502 7.86575C24.9171 7.69878 25 7.50663 25 7.28973C25 7.07257 24.9171 6.88042 24.7502 6.71318Z"
            fill="black" />
    </g>
    <defs>
        <clipPath id="clip0_724_1793">
            <rect width="25" height="25" fill="white" />
        </clipPath>
    </defs>
</svg>
