<svg width="40" height="32" viewBox="0 0 40 32" fill="none" xmlns="http://www.w3.org/2000/svg">
    <path
        d="M12.5026 18.25C11.9061 18.25 11.334 18.0129 10.9122 17.591C10.4904 17.169 10.2534 16.5967 10.2534 16C10.2534 15.4033 10.4904 14.831 10.9122 14.409C11.334 13.9871 11.9061 13.75 12.5026 13.75C13.0992 13.75 13.6713 13.9871 14.0931 14.409C14.5149 14.831 14.7519 15.4033 14.7519 16C14.7519 16.5967 14.5149 17.169 14.0931 17.591C13.6713 18.0129 13.0992 18.25 12.5026 18.25ZM20 18.25C19.4035 18.25 18.8314 18.0129 18.4096 17.591C17.9878 17.169 17.7508 16.5967 17.7508 16C17.7508 15.4033 17.9878 14.831 18.4096 14.409C18.8314 13.9871 19.4035 13.75 20 13.75C20.5966 13.75 21.1686 13.9871 21.5905 14.409C22.0123 14.831 22.2492 15.4033 22.2492 16C22.2492 16.5967 22.0123 17.169 21.5905 17.591C21.1686 18.0129 20.5966 18.25 20 18.25ZM27.4974 18.25C26.9009 18.25 26.3288 18.0129 25.907 17.591C25.4852 17.169 25.2482 16.5967 25.2482 16C25.2482 15.4033 25.4852 14.831 25.907 14.409C26.3288 13.9871 26.9009 13.75 27.4974 13.75C28.0939 13.75 28.666 13.9871 29.0878 14.409C29.5097 14.831 29.7466 15.4033 29.7466 16C29.7466 16.5967 29.5097 17.169 29.0878 17.591C28.666 18.0129 28.0939 18.25 27.4974 18.25Z"
        fill="black" />
</svg>
