<svg width="32" height="32" viewBox="0 0 32 32" fill="none" xmlns="http://www.w3.org/2000/svg">
    <path
        d="M17.8796 16L26.2796 7.61334C26.5307 7.36227 26.6717 7.02174 26.6717 6.66667C26.6717 6.3116 26.5307 5.97107 26.2796 5.72C26.0285 5.46893 25.688 5.32788 25.3329 5.32788C24.9779 5.32788 24.6373 5.46893 24.3863 5.72L15.9996 14.12L7.61293 5.72C7.36186 5.46893 7.02133 5.32788 6.66626 5.32788C6.31119 5.32788 5.97066 5.46893 5.71959 5.72C5.46852 5.97107 5.32747 6.3116 5.32747 6.66667C5.32747 7.02174 5.46852 7.36227 5.71959 7.61334L14.1196 16L5.71959 24.3867C5.59462 24.5106 5.49543 24.6581 5.42774 24.8206C5.36005 24.983 5.3252 25.1573 5.3252 25.3333C5.3252 25.5094 5.36005 25.6836 5.42774 25.8461C5.49543 26.0086 5.59462 26.1561 5.71959 26.28C5.84354 26.405 5.99101 26.5042 6.15349 26.5719C6.31597 26.6396 6.49024 26.6744 6.66626 26.6744C6.84228 26.6744 7.01655 26.6396 7.17903 26.5719C7.34151 26.5042 7.48898 26.405 7.61293 26.28L15.9996 17.88L24.3863 26.28C24.5102 26.405 24.6577 26.5042 24.8202 26.5719C24.9826 26.6396 25.1569 26.6744 25.3329 26.6744C25.5089 26.6744 25.6832 26.6396 25.8457 26.5719C26.0082 26.5042 26.1556 26.405 26.2796 26.28C26.4046 26.1561 26.5038 26.0086 26.5714 25.8461C26.6391 25.6836 26.674 25.5094 26.674 25.3333C26.674 25.1573 26.6391 24.983 26.5714 24.8206C26.5038 24.6581 26.4046 24.5106 26.2796 24.3867L17.8796 16Z"
        fill="black" />
</svg>
