<svg width="120" height="120" viewBox="0 0 120 120" fill="none" xmlns="http://www.w3.org/2000/svg">
<path d="M60 114.375C90.0305 114.375 114.375 90.0305 114.375 60C114.375 29.9695 90.0305 5.625 60 5.625C29.9695 5.625 5.625 29.9695 5.625 60C5.625 90.0305 29.9695 114.375 60 114.375Z" fill="#D3EFFE"/>
<path d="M60 105C84.8528 105 105 84.8528 105 60C105 35.1472 84.8528 15 60 15C35.1472 15 15 35.1472 15 60C15 84.8528 35.1472 105 60 105Z" fill="#80DAFF"/>
<path d="M44.3058 88.4034L43.8194 85.9716C43.62 84.9745 43.754 83.9395 44.2007 83.0261C44.6475 82.1126 45.3822 81.3714 46.2917 80.9167L48.0627 80.0312C48.8327 79.6462 49.4802 79.0544 49.9328 78.3222C50.3854 77.5899 50.6251 76.7461 50.6251 75.8853C50.6251 75.2766 50.5052 74.6738 50.2722 74.1114C50.0393 73.5491 49.6979 73.0381 49.2674 72.6076C48.837 72.1772 48.326 71.8358 47.7637 71.6028C47.2013 71.3699 46.5985 71.25 45.9898 71.25H39.3751L34.3081 68.7166C33.569 68.347 32.7453 68.1794 31.9206 68.2307C31.0958 68.2821 30.2992 68.5506 29.6117 69.0089L26.2501 71.25H16.4238C19.1608 81.7671 25.5994 90.944 34.5577 97.0962L41.8334 93.4583C42.7429 93.0036 43.4777 92.2624 43.9244 91.3489C44.3712 90.4355 44.5052 89.4005 44.3058 88.4034Z" fill="#FAC850"/>
<path d="M56.25 86.25H52.5V90H56.25V86.25Z" fill="#D3EFFE"/>
<path d="M71.25 26.25H67.5V30H71.25V26.25Z" fill="#D3EFFE"/>
<path d="M86.25 73.125H82.5V76.875H86.25V73.125Z" fill="#D3EFFE"/>
<path d="M28.125 46.875H24.375V50.625H28.125V46.875Z" fill="#D3EFFE"/>
<path d="M73.3947 59.0817L75.2213 57.0297L71.4209 55.154C69.3017 54.1081 68.7145 51.3545 70.2012 49.4342L71.9753 47.1426C72.276 46.7541 72.6462 46.4247 73.067 46.1711L74.4126 45.3609C74.8349 45.0975 75.3056 44.9212 75.797 44.8424C76.2885 44.7637 76.7907 44.784 77.2742 44.9022C77.7577 45.0204 78.2126 45.2341 78.6123 45.5307C79.0119 45.8274 79.3482 46.2009 79.6014 46.6294L80.6442 48.4303C81.0975 49.2028 81.8149 49.7854 82.664 50.0705C83.5131 50.3556 84.4368 50.3239 85.2644 49.9814L87.9005 48.9278C88.7282 48.5853 89.6517 48.5537 90.5009 48.8387C91.35 49.1238 92.0674 49.7064 92.5207 50.4789L94.284 53.5239C94.6339 54.1402 94.8062 54.8415 94.7817 55.5498C94.7573 56.2581 94.537 56.9457 94.1453 57.5364L91.6812 61.3138C91.1737 62.1086 90.3934 62.6905 89.4869 62.9502C88.5804 63.2099 87.6103 63.1295 86.759 62.724L84.9967 61.8543L81.2444 66.0694C80.8469 66.5265 80.2848 66.8077 79.6807 66.8517C79.0766 66.8957 78.4797 66.6989 78.0202 66.3043L73.5347 62.3113C73.0896 61.9005 72.825 61.3304 72.7988 60.7253C72.7726 60.1203 72.9868 59.5294 73.3947 59.0817Z" fill="#FAC850"/>
<path d="M71.2502 75C71.2502 78.1066 65.6252 84.375 65.6252 84.375C65.6252 84.375 60.0002 78.1066 60.0002 75C60.0002 73.5082 60.5929 72.0774 61.6478 71.0225C62.7027 69.9676 64.1334 69.375 65.6252 69.375C67.1171 69.375 68.5478 69.9676 69.6027 71.0225C70.6576 72.0774 71.2502 73.5082 71.2502 75ZM41.1988 64.869C41.1988 69.4161 33.8113 78.591 33.8113 78.591C33.8113 78.591 26.4238 69.4161 26.4238 64.869C26.4238 60.322 29.7313 56.6359 33.8113 56.6359C37.8914 56.6359 41.1988 60.322 41.1988 64.869ZM90.0002 40.1082C90.0002 44.6552 82.6128 53.8301 82.6128 53.8301C82.6128 53.8301 75.2252 44.6552 75.2252 40.1082C75.2252 35.5611 78.5328 31.875 82.6128 31.875C86.6927 31.875 90.0002 35.5611 90.0002 40.1082Z" fill="#25B1FA"/>
<path d="M38.1658 29.5007L44.0177 25.1118C44.3208 24.8845 44.6745 24.734 45.0485 24.6733C45.4225 24.6126 45.8056 24.6435 46.1651 24.7633L55.0959 27.7403C55.4525 27.8591 55.7752 28.062 56.0369 28.3318C56.2987 28.6015 56.4917 28.9303 56.5997 29.2903L61.5218 45.6974C61.6307 46.0607 61.6499 46.445 61.5776 46.8173C61.5054 47.1896 61.3439 47.5388 61.1069 47.8349L56.2051 53.9622C55.9856 54.2367 55.7071 54.4582 55.3903 54.6105C55.0735 54.7628 54.7265 54.8418 54.375 54.8418C54.0235 54.8418 53.6765 54.7628 53.3597 54.6105C53.0429 54.4582 52.7644 54.2367 52.5448 53.9622L47.455 47.5998C47.0825 47.1342 46.5466 46.8281 45.9564 46.7437L36.3228 45.3675C35.998 45.3211 35.6865 45.207 35.4086 45.0326C35.1307 44.8582 34.8924 44.6274 34.7093 44.3551C34.5262 44.0828 34.4024 43.7751 34.3457 43.4519C34.2891 43.1287 34.3009 42.7972 34.3805 42.4789L37.2985 30.8073C37.429 30.2851 37.7352 29.8238 38.1658 29.5007Z" fill="#FAC850"/>
<path d="M69.3685 101.25L61.0437 97.575C60.7226 97.361 60.4594 97.071 60.2773 96.7308C60.0953 96.3906 60 96.0107 60 95.6249C60 95.239 60.0953 94.8592 60.2773 94.519C60.4594 94.1788 60.7226 93.8888 61.0437 93.6748L68.1876 90.7871C68.9576 90.2739 69.8623 90 70.7878 90H77.0432L93.75 78.75H99.375L91.875 91.875L103.125 93.75L110.625 88.125H114.375L110.625 101.25H69.3685ZM50.6315 31.875L58.9563 28.2C59.2774 27.986 59.5406 27.696 59.7227 27.3558C59.9047 27.0156 60 26.6357 60 26.2499C60 25.864 59.9047 25.4842 59.7227 25.144C59.5406 24.8038 59.2774 24.5138 58.9563 24.2998L51.8124 21.4123C51.0424 20.8989 50.1377 20.625 49.2122 20.625H42.9568L26.25 9.375H20.625L28.125 22.5L16.875 24.375L9.375 18.75H5.625L9.375 31.875H50.6315Z" fill="#25B1FA"/>
<path d="M7.50003 60C7.49691 51.5078 9.55963 43.1423 13.5103 35.625H9.31198C4.73402 45.1314 2.92644 55.7351 4.09634 66.2213C5.26623 76.7075 9.36628 86.6521 15.9268 94.9158L18.8638 92.5842C11.4705 83.3367 7.46088 71.8396 7.50003 60ZM95.625 9.37503V16.4972C87.3486 9.70594 77.3037 5.42149 66.6736 4.14851C56.0435 2.87552 45.271 4.66704 35.625 9.31201V13.5104C45.3422 8.40725 56.4161 6.48307 67.2852 8.00926C78.1542 9.53545 88.27 14.435 96.2059 22.017C96.4716 22.2703 96.8057 22.44 97.1669 22.5052C97.5281 22.5704 97.9005 22.5281 98.238 22.3836C98.5754 22.2391 98.863 21.9988 99.0651 21.6924C99.2672 21.3861 99.375 21.0271 99.375 20.6601V9.37503H95.625ZM60 112.5C52.8945 112.504 45.8625 111.061 39.3325 108.26C32.8024 105.459 26.9109 101.358 22.0169 96.2063C21.7586 95.9355 21.4252 95.7482 21.0596 95.6685C20.694 95.5887 20.313 95.6202 19.9654 95.7588C19.6178 95.8974 19.3197 96.1369 19.1093 96.4464C18.899 96.7558 18.786 97.1212 18.785 97.4954L18.75 110.62L22.5 110.63L22.5235 101.918C31.6245 110.073 43.1377 115.037 55.3156 116.055C67.4934 117.073 79.671 114.091 90 107.56V103.06C81.201 109.201 70.7303 112.496 60 112.5ZM102.462 23.1451L99.6321 25.6049C107.927 35.1443 112.496 47.3588 112.5 60C112.531 69.2199 110.102 78.2812 105.465 86.25H109.757C114.049 78.1677 116.279 69.151 116.25 60C116.246 46.4548 111.35 33.3668 102.462 23.1451Z" fill="#80DAFF"/>
</svg>
